<?xml version="1.0" encoding="UTF-8" standalone="no"?>
<!DOCTYPE svg PUBLIC "-//W3C//DTD SVG 1.1//EN"
 "http://www.w3.org/Graphics/SVG/1.1/DTD/svg11.dtd">
<!-- Generated by graphviz version 2.44.0 ()
 -->
<!-- Title: v8::Isolate::CreateParams Pages: 1 -->
<svg width="1654pt" height="377pt"
 viewBox="0.00 0.00 1654.00 377.00" xmlns="http://www.w3.org/2000/svg" xmlns:xlink="http://www.w3.org/1999/xlink">
<g id="graph0" class="graph" transform="scale(1 1) rotate(0) translate(4 373)">
<title>v8::Isolate::CreateParams</title>
<polygon fill="white" stroke="transparent" points="-4,4 -4,-373 1650,-373 1650,4 -4,4"/>
<!-- Node1 -->
<g id="node1" class="node">
<title>Node1</title>
<g id="a_node1"><a xlink:title=" ">
<polygon fill="#bfbfbf" stroke="black" points="1518,-214.5 1518,-233.5 1646,-233.5 1646,-214.5 1518,-214.5"/>
<text text-anchor="middle" x="1582" y="-221.5" font-family="Helvetica,sans-Serif" font-size="10.00">v8::Isolate::CreateParams</text>
</a>
</g>
</g>
<!-- Node2 -->
<g id="node2" class="node">
<title>Node2</title>
<g id="a_node2"><a xlink:href="classv8_1_1ArrayBuffer_1_1Allocator.html" target="_top" xlink:title=" ">
<polygon fill="white" stroke="black" points="945,-335.5 945,-354.5 1067,-354.5 1067,-335.5 945,-335.5"/>
<text text-anchor="middle" x="1006" y="-342.5" font-family="Helvetica,sans-Serif" font-size="10.00">v8::ArrayBuffer::Allocator</text>
</a>
</g>
</g>
<!-- Node2&#45;&gt;Node1 -->
<g id="edge1" class="edge">
<title>Node2&#45;&gt;Node1</title>
<path fill="none" stroke="#9a32cd" stroke-dasharray="5,2" d="M1077.26,-354.36C1176.97,-364.32 1362.66,-370.46 1500,-302 1533.2,-285.45 1561.74,-250.5 1574.24,-233.58"/>
<polygon fill="#9a32cd" stroke="#9a32cd" points="1077.61,-350.87 1067.3,-353.32 1076.88,-357.84 1077.61,-350.87"/>
<text text-anchor="middle" x="1321" y="-361" font-family="Helvetica,sans-Serif" font-size="10.00"> array_buffer_allocator</text>
</g>
<!-- Node4 -->
<g id="node4" class="node">
<title>Node4</title>
<g id="a_node4"><a xlink:title=" ">
<polygon fill="white" stroke="#bfbfbf" points="1261,-280 1261,-310 1381,-310 1381,-280 1261,-280"/>
<text text-anchor="start" x="1269" y="-298" font-family="Helvetica,sans-Serif" font-size="10.00">std::shared_ptr&lt; v8</text>
<text text-anchor="middle" x="1321" y="-287" font-family="Helvetica,sans-Serif" font-size="10.00">::ArrayBuffer::Allocator &gt;</text>
</a>
</g>
</g>
<!-- Node2&#45;&gt;Node4 -->
<g id="edge4" class="edge">
<title>Node2&#45;&gt;Node4</title>
<path fill="none" stroke="#9a32cd" stroke-dasharray="5,2" d="M1077.2,-334.83C1122.79,-328.1 1183.48,-318.91 1237,-310 1244.66,-308.73 1252.7,-307.34 1260.64,-305.93"/>
<polygon fill="#9a32cd" stroke="#9a32cd" points="1076.51,-331.4 1067.12,-336.32 1077.53,-338.32 1076.51,-331.4"/>
<text text-anchor="middle" x="1168.5" y="-334" font-family="Helvetica,sans-Serif" font-size="10.00"> ptr</text>
</g>
<!-- Node3 -->
<g id="node3" class="node">
<title>Node3</title>
<g id="a_node3"><a xlink:href="classv8_1_1ResourceConstraints.html" target="_top" xlink:title=" ">
<polygon fill="white" stroke="black" points="1260,-192.5 1260,-211.5 1382,-211.5 1382,-192.5 1260,-192.5"/>
<text text-anchor="middle" x="1321" y="-199.5" font-family="Helvetica,sans-Serif" font-size="10.00">v8::ResourceConstraints</text>
</a>
</g>
</g>
<!-- Node3&#45;&gt;Node1 -->
<g id="edge2" class="edge">
<title>Node3&#45;&gt;Node1</title>
<path fill="none" stroke="#9a32cd" stroke-dasharray="5,2" d="M1392.71,-201.77C1425.44,-202.33 1464.8,-203.96 1500,-208 1512.96,-209.49 1526.94,-211.94 1539.58,-214.48"/>
<polygon fill="#9a32cd" stroke="#9a32cd" points="1392.37,-198.26 1382.32,-201.62 1392.27,-205.26 1392.37,-198.26"/>
<text text-anchor="middle" x="1452.5" y="-211" font-family="Helvetica,sans-Serif" font-size="10.00"> constraints</text>
</g>
<!-- Node4&#45;&gt;Node1 -->
<g id="edge3" class="edge">
<title>Node4&#45;&gt;Node1</title>
<path fill="none" stroke="#9a32cd" stroke-dasharray="5,2" d="M1391.41,-280.52C1424.51,-273.13 1464.54,-263.49 1500,-253 1519.19,-247.32 1540.49,-239.64 1556.42,-233.61"/>
<polygon fill="#9a32cd" stroke="#9a32cd" points="1390.37,-277.16 1381.37,-282.74 1391.88,-284 1390.37,-277.16"/>
<text text-anchor="start" x="1405" y="-290" font-family="Helvetica,sans-Serif" font-size="10.00"> array_buffer_allocator</text>
<text text-anchor="middle" x="1452.5" y="-279" font-family="Helvetica,sans-Serif" font-size="10.00">_shared</text>
</g>
<!-- Node5 -->
<g id="node5" class="node">
<title>Node5</title>
<g id="a_node5"><a xlink:title="STL class.">
<polygon fill="white" stroke="#bfbfbf" points="954.5,-273.5 954.5,-292.5 1057.5,-292.5 1057.5,-273.5 954.5,-273.5"/>
<text text-anchor="middle" x="1006" y="-280.5" font-family="Helvetica,sans-Serif" font-size="10.00">std::shared_ptr&lt; T &gt;</text>
</a>
</g>
</g>
<!-- Node5&#45;&gt;Node4 -->
<g id="edge5" class="edge">
<title>Node5&#45;&gt;Node4</title>
<path fill="none" stroke="orange" stroke-dasharray="5,2" d="M1067.92,-283.29C1114.3,-283.76 1179.71,-284.96 1237,-288 1244.65,-288.41 1252.7,-288.94 1260.64,-289.54"/>
<polygon fill="orange" stroke="orange" points="1067.77,-279.79 1057.74,-283.19 1067.7,-286.79 1067.77,-279.79"/>
<text text-anchor="start" x="1129" y="-302" font-family="Helvetica,sans-Serif" font-size="10.00"> &lt; v8::ArrayBuffer::</text>
<text text-anchor="middle" x="1168.5" y="-291" font-family="Helvetica,sans-Serif" font-size="10.00">Allocator &gt;</text>
</g>
<!-- Node7 -->
<g id="node7" class="node">
<title>Node7</title>
<g id="a_node7"><a xlink:title=" ">
<polygon fill="white" stroke="#bfbfbf" points="1255,-231 1255,-261 1387,-261 1387,-231 1255,-231"/>
<text text-anchor="start" x="1263" y="-249" font-family="Helvetica,sans-Serif" font-size="10.00">std::shared_ptr&lt; v8</text>
<text text-anchor="middle" x="1321" y="-238" font-family="Helvetica,sans-Serif" font-size="10.00">::CppHeapCreateParams &gt;</text>
</a>
</g>
</g>
<!-- Node5&#45;&gt;Node7 -->
<g id="edge16" class="edge">
<title>Node5&#45;&gt;Node7</title>
<path fill="none" stroke="orange" stroke-dasharray="5,2" d="M1067.75,-272.66C1078.48,-270.99 1089.55,-269.36 1100,-268 1151.95,-261.22 1211.05,-255.41 1254.9,-251.47"/>
<polygon fill="orange" stroke="orange" points="1066.93,-269.25 1057.6,-274.27 1068.02,-276.16 1066.93,-269.25"/>
<text text-anchor="middle" x="1168.5" y="-271" font-family="Helvetica,sans-Serif" font-size="10.00"> &lt; v8::CppHeapCreateParams &gt;</text>
</g>
<!-- Node6 -->
<g id="node6" class="node">
<title>Node6</title>
<g id="a_node6"><a xlink:title=" ">
<polygon fill="white" stroke="#bfbfbf" points="0,-228.5 0,-247.5 29,-247.5 29,-228.5 0,-228.5"/>
<text text-anchor="middle" x="14.5" y="-235.5" font-family="Helvetica,sans-Serif" font-size="10.00">T</text>
</a>
</g>
</g>
<!-- Node6&#45;&gt;Node5 -->
<g id="edge6" class="edge">
<title>Node6&#45;&gt;Node5</title>
<path fill="none" stroke="#9a32cd" stroke-dasharray="5,2" d="M38.63,-249.03C68.74,-262.35 123.33,-283 172.5,-283 172.5,-283 172.5,-283 709.5,-283 795.43,-283 895.42,-283 954.28,-283"/>
<polygon fill="#9a32cd" stroke="#9a32cd" points="39.95,-245.79 29.4,-244.83 37.06,-252.16 39.95,-245.79"/>
<text text-anchor="middle" x="476" y="-286" font-family="Helvetica,sans-Serif" font-size="10.00"> ptr</text>
</g>
<!-- Node12 -->
<g id="node12" class="node">
<title>Node12</title>
<g id="a_node12"><a xlink:title="STL class.">
<polygon fill="white" stroke="#bfbfbf" points="122.5,-152.5 122.5,-171.5 224.5,-171.5 224.5,-152.5 122.5,-152.5"/>
<text text-anchor="middle" x="173.5" y="-159.5" font-family="Helvetica,sans-Serif" font-size="10.00">std::unique_ptr&lt; T &gt;</text>
</a>
</g>
</g>
<!-- Node6&#45;&gt;Node12 -->
<g id="edge13" class="edge">
<title>Node6&#45;&gt;Node12</title>
<path fill="none" stroke="#9a32cd" stroke-dasharray="5,2" d="M29.52,-220.54C34.59,-215.03 40.64,-209.27 47,-205 70.99,-188.88 101.62,-178.23 126.61,-171.56"/>
<polygon fill="#9a32cd" stroke="#9a32cd" points="26.76,-218.38 22.88,-228.23 32.06,-222.95 26.76,-218.38"/>
<text text-anchor="middle" x="68.5" y="-208" font-family="Helvetica,sans-Serif" font-size="10.00"> ptr</text>
</g>
<!-- Node13 -->
<g id="node13" class="node">
<title>Node13</title>
<g id="a_node13"><a xlink:title="STL class.">
<polygon fill="white" stroke="#bfbfbf" points="282,-222.5 282,-241.5 366,-241.5 366,-222.5 282,-222.5"/>
<text text-anchor="middle" x="324" y="-229.5" font-family="Helvetica,sans-Serif" font-size="10.00">std::vector&lt; T &gt;</text>
</a>
</g>
</g>
<!-- Node6&#45;&gt;Node13 -->
<g id="edge15" class="edge">
<title>Node6&#45;&gt;Node13</title>
<path fill="none" stroke="#9a32cd" stroke-dasharray="5,2" d="M39.39,-237.53C91.66,-236.51 216.71,-234.07 281.9,-232.8"/>
<polygon fill="#9a32cd" stroke="#9a32cd" points="39.04,-234.04 29.11,-237.73 39.18,-241.04 39.04,-234.04"/>
<text text-anchor="middle" x="68.5" y="-240" font-family="Helvetica,sans-Serif" font-size="10.00"> elements</text>
</g>
<!-- Node7&#45;&gt;Node1 -->
<g id="edge7" class="edge">
<title>Node7&#45;&gt;Node1</title>
<path fill="none" stroke="#9a32cd" stroke-dasharray="5,2" d="M1397.08,-239.62C1435.33,-236.37 1481.32,-232.47 1517.74,-229.37"/>
<polygon fill="#9a32cd" stroke="#9a32cd" points="1396.69,-236.14 1387.02,-240.48 1397.28,-243.12 1396.69,-236.14"/>
<text text-anchor="middle" x="1452.5" y="-241" font-family="Helvetica,sans-Serif" font-size="10.00"> cpp_heap_params</text>
</g>
<!-- Node8 -->
<g id="node8" class="node">
<title>Node8</title>
<g id="a_node8"><a xlink:href="structv8_1_1CppHeapCreateParams.html" target="_top" xlink:title=" ">
<polygon fill="white" stroke="black" points="939,-211.5 939,-230.5 1073,-230.5 1073,-211.5 939,-211.5"/>
<text text-anchor="middle" x="1006" y="-218.5" font-family="Helvetica,sans-Serif" font-size="10.00">v8::CppHeapCreateParams</text>
</a>
</g>
</g>
<!-- Node8&#45;&gt;Node7 -->
<g id="edge8" class="edge">
<title>Node8&#45;&gt;Node7</title>
<path fill="none" stroke="#9a32cd" stroke-dasharray="5,2" d="M1083.59,-214.73C1128.53,-212.52 1186.28,-212.24 1237,-220 1251.48,-222.21 1266.9,-226.48 1280.47,-230.93"/>
<polygon fill="#9a32cd" stroke="#9a32cd" points="1083.13,-211.25 1073.33,-215.28 1083.5,-218.24 1083.13,-211.25"/>
<text text-anchor="middle" x="1168.5" y="-223" font-family="Helvetica,sans-Serif" font-size="10.00"> ptr</text>
</g>
<!-- Node9 -->
<g id="node9" class="node">
<title>Node9</title>
<g id="a_node9"><a xlink:title=" ">
<polygon fill="white" stroke="#bfbfbf" points="622,-206 622,-236 795,-236 795,-206 622,-206"/>
<text text-anchor="start" x="630" y="-224" font-family="Helvetica,sans-Serif" font-size="10.00">std::vector&lt; std::unique</text>
<text text-anchor="middle" x="708.5" y="-213" font-family="Helvetica,sans-Serif" font-size="10.00">_ptr&lt; cppgc::CustomSpaceBase &gt; &gt;</text>
</a>
</g>
</g>
<!-- Node9&#45;&gt;Node8 -->
<g id="edge9" class="edge">
<title>Node9&#45;&gt;Node8</title>
<path fill="none" stroke="#9a32cd" stroke-dasharray="5,2" d="M805.41,-221C848.96,-221 899.39,-221 938.66,-221"/>
<polygon fill="#9a32cd" stroke="#9a32cd" points="805.37,-217.5 795.37,-221 805.37,-224.5 805.37,-217.5"/>
<text text-anchor="middle" x="862.5" y="-224" font-family="Helvetica,sans-Serif" font-size="10.00"> custom_spaces</text>
</g>
<!-- Node10 -->
<g id="node10" class="node">
<title>Node10</title>
<g id="a_node10"><a xlink:title=" ">
<polygon fill="white" stroke="#bfbfbf" points="419,-158 419,-188 533,-188 533,-158 419,-158"/>
<text text-anchor="start" x="427" y="-176" font-family="Helvetica,sans-Serif" font-size="10.00">std::unique_ptr&lt; cppgc</text>
<text text-anchor="middle" x="476" y="-165" font-family="Helvetica,sans-Serif" font-size="10.00">::CustomSpaceBase &gt;</text>
</a>
</g>
</g>
<!-- Node10&#45;&gt;Node9 -->
<g id="edge10" class="edge">
<title>Node10&#45;&gt;Node9</title>
<path fill="none" stroke="#9a32cd" stroke-dasharray="5,2" d="M543.07,-186.76C571.94,-192.77 605.86,-199.83 635.38,-205.98"/>
<polygon fill="#9a32cd" stroke="#9a32cd" points="543.6,-183.29 533.09,-184.68 542.17,-190.15 543.6,-183.29"/>
<text text-anchor="middle" x="582.5" y="-201" font-family="Helvetica,sans-Serif" font-size="10.00"> elements</text>
</g>
<!-- Node11 -->
<g id="node11" class="node">
<title>Node11</title>
<g id="a_node11"><a xlink:href="classcppgc_1_1CustomSpaceBase.html" target="_top" xlink:title=" ">
<polygon fill="white" stroke="black" points="108,-190.5 108,-209.5 239,-209.5 239,-190.5 108,-190.5"/>
<text text-anchor="middle" x="173.5" y="-197.5" font-family="Helvetica,sans-Serif" font-size="10.00">cppgc::CustomSpaceBase</text>
</a>
</g>
</g>
<!-- Node11&#45;&gt;Node10 -->
<g id="edge11" class="edge">
<title>Node11&#45;&gt;Node10</title>
<path fill="none" stroke="#9a32cd" stroke-dasharray="5,2" d="M249.6,-193.25C302.11,-188.53 371.12,-182.33 418.87,-178.04"/>
<polygon fill="#9a32cd" stroke="#9a32cd" points="248.98,-189.79 239.33,-194.17 249.61,-196.77 248.98,-189.79"/>
<text text-anchor="middle" x="324" y="-195" font-family="Helvetica,sans-Serif" font-size="10.00"> ptr</text>
</g>
<!-- Node12&#45;&gt;Node10 -->
<g id="edge12" class="edge">
<title>Node12&#45;&gt;Node10</title>
<path fill="none" stroke="orange" stroke-dasharray="5,2" d="M234.95,-162.62C278.38,-163.25 338.33,-164.51 391,-167 400.05,-167.43 409.65,-168 418.99,-168.62"/>
<polygon fill="orange" stroke="orange" points="234.88,-159.12 224.83,-162.48 234.78,-166.11 234.88,-159.12"/>
<text text-anchor="middle" x="324" y="-170" font-family="Helvetica,sans-Serif" font-size="10.00"> &lt; cppgc::CustomSpaceBase &gt;</text>
</g>
<!-- Node13&#45;&gt;Node9 -->
<g id="edge14" class="edge">
<title>Node13&#45;&gt;Node9</title>
<path fill="none" stroke="orange" stroke-dasharray="5,2" d="M376.36,-230.52C439.19,-228.72 546.47,-225.63 621.86,-223.46"/>
<polygon fill="orange" stroke="orange" points="376.19,-227.03 366.3,-230.81 376.39,-234.02 376.19,-227.03"/>
<text text-anchor="start" x="409" y="-243" font-family="Helvetica,sans-Serif" font-size="10.00"> &lt; std::unique_ptr&lt;</text>
<text text-anchor="middle" x="476" y="-232" font-family="Helvetica,sans-Serif" font-size="10.00"> cppgc::CustomSpaceBase &gt; &gt;</text>
</g>
<!-- Node14 -->
<g id="node14" class="node">
<title>Node14</title>
<g id="a_node14"><a xlink:href="classv8_1_1StartupData.html" target="_top" xlink:title=" ">
<polygon fill="white" stroke="black" points="1279.5,-154.5 1279.5,-173.5 1362.5,-173.5 1362.5,-154.5 1279.5,-154.5"/>
<text text-anchor="middle" x="1321" y="-161.5" font-family="Helvetica,sans-Serif" font-size="10.00">v8::StartupData</text>
</a>
</g>
</g>
<!-- Node14&#45;&gt;Node1 -->
<g id="edge17" class="edge">
<title>Node14&#45;&gt;Node1</title>
<path fill="none" stroke="#9a32cd" stroke-dasharray="5,2" d="M1372.91,-166.52C1408.96,-169.28 1458.14,-175.03 1500,-187 1523.04,-193.59 1547.87,-205.76 1563.88,-214.34"/>
<polygon fill="#9a32cd" stroke="#9a32cd" points="1372.86,-163.01 1362.64,-165.79 1372.36,-169.99 1372.86,-163.01"/>
<text text-anchor="middle" x="1452.5" y="-190" font-family="Helvetica,sans-Serif" font-size="10.00"> snapshot_blob</text>
</g>
<!-- Node15 -->
<g id="node15" class="node">
<title>Node15</title>
<g id="a_node15"><a xlink:href="structv8_1_1JitCodeEvent.html" target="_top" xlink:title=" ">
<polygon fill="white" stroke="black" points="1276.5,-101.5 1276.5,-120.5 1365.5,-120.5 1365.5,-101.5 1276.5,-101.5"/>
<text text-anchor="middle" x="1321" y="-108.5" font-family="Helvetica,sans-Serif" font-size="10.00">v8::JitCodeEvent</text>
</a>
</g>
</g>
<!-- Node15&#45;&gt;Node1 -->
<g id="edge18" class="edge">
<title>Node15&#45;&gt;Node1</title>
<path fill="none" stroke="#9a32cd" stroke-dasharray="5,2" d="M1375.7,-117.2C1412.29,-123.01 1460.97,-133.94 1500,-154 1530.41,-169.64 1558.95,-198.96 1572.6,-214.21"/>
<polygon fill="#9a32cd" stroke="#9a32cd" points="1376.13,-113.72 1365.72,-115.69 1375.09,-120.64 1376.13,-113.72"/>
<text text-anchor="middle" x="1452.5" y="-157" font-family="Helvetica,sans-Serif" font-size="10.00"> code_event_handler</text>
</g>
<!-- Node16 -->
<g id="node16" class="node">
<title>Node16</title>
<g id="a_node16"><a xlink:href="structv8_1_1JitCodeEvent_1_1name__t.html" target="_top" xlink:title=" ">
<polygon fill="white" stroke="black" points="943,-173.5 943,-192.5 1069,-192.5 1069,-173.5 943,-173.5"/>
<text text-anchor="middle" x="1006" y="-180.5" font-family="Helvetica,sans-Serif" font-size="10.00">v8::JitCodeEvent::name_t</text>
</a>
</g>
</g>
<!-- Node16&#45;&gt;Node15 -->
<g id="edge19" class="edge">
<title>Node16&#45;&gt;Node15</title>
<path fill="none" stroke="#9a32cd" stroke-dasharray="5,2" d="M1079.4,-174.7C1125.13,-168.48 1185.15,-158.53 1237,-144 1258.95,-137.85 1283.06,-127.88 1299.61,-120.51"/>
<polygon fill="#9a32cd" stroke="#9a32cd" points="1078.73,-171.26 1069.28,-176.05 1079.65,-178.2 1078.73,-171.26"/>
<text text-anchor="middle" x="1168.5" y="-174" font-family="Helvetica,sans-Serif" font-size="10.00"> name</text>
</g>
<!-- Node17 -->
<g id="node17" class="node">
<title>Node17</title>
<g id="a_node17"><a xlink:href="structv8_1_1JitCodeEvent_1_1line__info__t.html" target="_top" xlink:title=" ">
<polygon fill="white" stroke="black" points="654,-98 654,-128 763,-128 763,-98 654,-98"/>
<text text-anchor="start" x="662" y="-116" font-family="Helvetica,sans-Serif" font-size="10.00">v8::JitCodeEvent::line</text>
<text text-anchor="middle" x="708.5" y="-105" font-family="Helvetica,sans-Serif" font-size="10.00">_info_t</text>
</a>
</g>
</g>
<!-- Node17&#45;&gt;Node15 -->
<g id="edge20" class="edge">
<title>Node17&#45;&gt;Node15</title>
<path fill="none" stroke="#9a32cd" stroke-dasharray="5,2" d="M773.66,-109.69C817.65,-107.59 877.34,-105.07 930,-104 1055.76,-101.43 1204.35,-106.28 1276.42,-109.13"/>
<polygon fill="#9a32cd" stroke="#9a32cd" points="773.22,-106.21 763.4,-110.19 773.56,-113.2 773.22,-106.21"/>
<text text-anchor="middle" x="1006" y="-107" font-family="Helvetica,sans-Serif" font-size="10.00"> line_info</text>
</g>
<!-- Node18 -->
<g id="node18" class="node">
<title>Node18</title>
<g id="a_node18"><a xlink:href="structv8_1_1JitCodeEvent_1_1wasm__source__info__t.html" target="_top" xlink:title=" ">
<polygon fill="white" stroke="black" points="946,-124 946,-154 1066,-154 1066,-124 946,-124"/>
<text text-anchor="start" x="954" y="-142" font-family="Helvetica,sans-Serif" font-size="10.00">v8::JitCodeEvent::wasm</text>
<text text-anchor="middle" x="1006" y="-131" font-family="Helvetica,sans-Serif" font-size="10.00">_source_info_t</text>
</a>
</g>
</g>
<!-- Node17&#45;&gt;Node18 -->
<g id="edge22" class="edge">
<title>Node17&#45;&gt;Node18</title>
<path fill="none" stroke="#9a32cd" stroke-dasharray="5,2" d="M772.98,-118.58C824.21,-123.09 895.74,-129.39 945.8,-133.79"/>
<polygon fill="#9a32cd" stroke="#9a32cd" points="773.28,-115.1 763.01,-117.71 772.67,-122.07 773.28,-115.1"/>
<text text-anchor="middle" x="862.5" y="-133" font-family="Helvetica,sans-Serif" font-size="10.00"> line_number_table</text>
</g>
<!-- Node18&#45;&gt;Node15 -->
<g id="edge21" class="edge">
<title>Node18&#45;&gt;Node15</title>
<path fill="none" stroke="#9a32cd" stroke-dasharray="5,2" d="M1076.56,-132.78C1137.55,-127.32 1224.34,-119.56 1276.14,-114.92"/>
<polygon fill="#9a32cd" stroke="#9a32cd" points="1075.89,-129.32 1066.24,-133.7 1076.51,-136.3 1075.89,-129.32"/>
<text text-anchor="middle" x="1168.5" y="-132" font-family="Helvetica,sans-Serif" font-size="10.00"> wasm_source_info</text>
</g>
<!-- Node19 -->
<g id="node19" class="node">
<title>Node19</title>
<g id="a_node19"><a xlink:href="classv8_1_1Local.html" target="_top" xlink:title=" ">
<polygon fill="white" stroke="black" points="930,-38.5 930,-57.5 1082,-57.5 1082,-38.5 930,-38.5"/>
<text text-anchor="middle" x="1006" y="-45.5" font-family="Helvetica,sans-Serif" font-size="10.00">v8::Local&lt; v8::UnboundScript &gt;</text>
</a>
</g>
</g>
<!-- Node19&#45;&gt;Node15 -->
<g id="edge23" class="edge">
<title>Node19&#45;&gt;Node15</title>
<path fill="none" stroke="#9a32cd" stroke-dasharray="5,2" d="M1092.19,-48.17C1136.17,-50.15 1190.25,-55.57 1237,-69 1262.46,-76.31 1289.36,-91.49 1305.41,-101.46"/>
<polygon fill="#9a32cd" stroke="#9a32cd" points="1092.24,-44.67 1082.11,-47.77 1091.96,-51.66 1092.24,-44.67"/>
<text text-anchor="middle" x="1168.5" y="-72" font-family="Helvetica,sans-Serif" font-size="10.00"> script</text>
</g>
<!-- Node20 -->
<g id="node20" class="node">
<title>Node20</title>
<g id="a_node20"><a xlink:href="classv8_1_1Local.html" target="_top" xlink:title=" ">
<polygon fill="white" stroke="black" points="669.5,-38.5 669.5,-57.5 747.5,-57.5 747.5,-38.5 669.5,-38.5"/>
<text text-anchor="middle" x="708.5" y="-45.5" font-family="Helvetica,sans-Serif" font-size="10.00">v8::Local&lt; T &gt;</text>
</a>
</g>
</g>
<!-- Node20&#45;&gt;Node19 -->
<g id="edge24" class="edge">
<title>Node20&#45;&gt;Node19</title>
<path fill="none" stroke="orange" stroke-dasharray="5,2" d="M757.67,-48C804.34,-48 875.81,-48 929.94,-48"/>
<polygon fill="orange" stroke="orange" points="757.53,-44.5 747.53,-48 757.53,-51.5 757.53,-44.5"/>
<text text-anchor="middle" x="862.5" y="-51" font-family="Helvetica,sans-Serif" font-size="10.00"> &lt; v8::UnboundScript &gt;</text>
</g>
<!-- Node21 -->
<g id="node21" class="node">
<title>Node21</title>
<g id="a_node21"><a xlink:href="classv8_1_1Isolate.html" target="_top" xlink:title=" ">
<polygon fill="white" stroke="black" points="975.5,-0.5 975.5,-19.5 1036.5,-19.5 1036.5,-0.5 975.5,-0.5"/>
<text text-anchor="middle" x="1006" y="-7.5" font-family="Helvetica,sans-Serif" font-size="10.00">v8::Isolate</text>
</a>
</g>
</g>
<!-- Node21&#45;&gt;Node15 -->
<g id="edge25" class="edge">
<title>Node21&#45;&gt;Node15</title>
<path fill="none" stroke="#9a32cd" stroke-dasharray="5,2" d="M1046.69,-6.46C1094.17,-3.88 1175.03,-4.8 1237,-33 1271.38,-48.64 1300.66,-84.36 1313.31,-101.49"/>
<polygon fill="#9a32cd" stroke="#9a32cd" points="1046.27,-2.98 1036.51,-7.1 1046.71,-9.97 1046.27,-2.98"/>
<text text-anchor="middle" x="1168.5" y="-36" font-family="Helvetica,sans-Serif" font-size="10.00"> isolate</text>
</g>
</g>
</svg>
