<?xml version="1.0" encoding="UTF-8" standalone="no"?>
<!DOCTYPE svg PUBLIC "-//W3C//DTD SVG 1.1//EN"
 "http://www.w3.org/Graphics/SVG/1.1/DTD/svg11.dtd">
<!-- Generated by graphviz version 2.44.0 ()
 -->
<!-- Title: include/v8&#45;cppgc.h Pages: 1 -->
<svg width="1855pt" height="520pt"
 viewBox="0.00 0.00 1855.00 520.00" xmlns="http://www.w3.org/2000/svg" xmlns:xlink="http://www.w3.org/1999/xlink">
<g id="graph0" class="graph" transform="scale(1 1) rotate(0) translate(4 516)">
<title>include/v8&#45;cppgc.h</title>
<polygon fill="white" stroke="transparent" points="-4,4 -4,-516 1851,-516 1851,4 -4,4"/>
<!-- Node1 -->
<g id="node1" class="node">
<title>Node1</title>
<g id="a_node1"><a xlink:title=" ">
<polygon fill="#bfbfbf" stroke="black" points="401,-492.5 401,-511.5 499,-511.5 499,-492.5 401,-492.5"/>
<text text-anchor="middle" x="450" y="-499.5" font-family="Helvetica,sans-Serif" font-size="10.00">include/v8&#45;cppgc.h</text>
</a>
</g>
</g>
<!-- Node2 -->
<g id="node2" class="node">
<title>Node2</title>
<g id="a_node2"><a xlink:title=" ">
<polygon fill="white" stroke="#bfbfbf" points="23.5,-62 23.5,-81 74.5,-81 74.5,-62 23.5,-62"/>
<text text-anchor="middle" x="49" y="-69" font-family="Helvetica,sans-Serif" font-size="10.00">memory</text>
</a>
</g>
</g>
<!-- Node1&#45;&gt;Node2 -->
<g id="edge1" class="edge">
<title>Node1&#45;&gt;Node2</title>
<path fill="none" stroke="midnightblue" d="M400.99,-499.34C284.36,-494.07 0,-472.83 0,-391 0,-391 0,-391 0,-204.5 0,-161.1 23.57,-114.41 38.01,-89.87"/>
<polygon fill="midnightblue" stroke="midnightblue" points="41.17,-91.41 43.38,-81.05 35.19,-87.77 41.17,-91.41"/>
</g>
<!-- Node3 -->
<g id="node3" class="node">
<title>Node3</title>
<g id="a_node3"><a xlink:title=" ">
<polygon fill="white" stroke="#bfbfbf" points="503,-129 503,-148 547,-148 547,-129 503,-129"/>
<text text-anchor="middle" x="525" y="-136" font-family="Helvetica,sans-Serif" font-size="10.00">vector</text>
</a>
</g>
</g>
<!-- Node1&#45;&gt;Node3 -->
<g id="edge2" class="edge">
<title>Node1&#45;&gt;Node3</title>
<path fill="none" stroke="midnightblue" d="M458.02,-492.36C473.51,-474.74 506,-432.79 506,-391 506,-391 506,-391 506,-271.5 506,-230.74 514.98,-183.62 520.6,-158.16"/>
<polygon fill="midnightblue" stroke="midnightblue" points="524.08,-158.61 522.89,-148.09 517.26,-157.06 524.08,-158.61"/>
</g>
<!-- Node4 -->
<g id="node4" class="node">
<title>Node4</title>
<g id="a_node4"><a xlink:href="custom-space_8h.html" target="_top" xlink:title=" ">
<polygon fill="white" stroke="black" points="565.5,-196 565.5,-215 680.5,-215 680.5,-196 565.5,-196"/>
<text text-anchor="middle" x="623" y="-203" font-family="Helvetica,sans-Serif" font-size="10.00">cppgc/custom&#45;space.h</text>
</a>
</g>
</g>
<!-- Node1&#45;&gt;Node4 -->
<g id="edge3" class="edge">
<title>Node1&#45;&gt;Node4</title>
<path fill="none" stroke="midnightblue" d="M479.14,-492.43C519.9,-478.45 589,-446.55 589,-391 589,-391 589,-391 589,-333 589,-293.18 604.9,-248.66 614.96,-224.49"/>
<polygon fill="midnightblue" stroke="midnightblue" points="618.23,-225.75 618.97,-215.18 611.8,-222.98 618.23,-225.75"/>
</g>
<!-- Node6 -->
<g id="node6" class="node">
<title>Node6</title>
<g id="a_node6"><a xlink:href="visitor_8h.html" target="_top" xlink:title=" ">
<polygon fill="white" stroke="black" points="1319,-436.5 1319,-455.5 1399,-455.5 1399,-436.5 1319,-436.5"/>
<text text-anchor="middle" x="1359" y="-443.5" font-family="Helvetica,sans-Serif" font-size="10.00">cppgc/visitor.h</text>
</a>
</g>
</g>
<!-- Node1&#45;&gt;Node6 -->
<g id="edge5" class="edge">
<title>Node1&#45;&gt;Node6</title>
<path fill="none" stroke="midnightblue" d="M499.19,-498.08C657.07,-488.7 1149.9,-459.42 1308.96,-449.97"/>
<polygon fill="midnightblue" stroke="midnightblue" points="1309.18,-453.47 1318.95,-449.38 1308.76,-446.48 1309.18,-453.47"/>
</g>
<!-- Node32 -->
<g id="node32" class="node">
<title>Node32</title>
<g id="a_node32"><a xlink:href="v8-internal_8h.html" target="_top" xlink:title=" ">
<polygon fill="white" stroke="black" points="377.5,-129 377.5,-148 446.5,-148 446.5,-129 377.5,-129"/>
<text text-anchor="middle" x="412" y="-136" font-family="Helvetica,sans-Serif" font-size="10.00">v8&#45;internal.h</text>
</a>
</g>
</g>
<!-- Node1&#45;&gt;Node32 -->
<g id="edge69" class="edge">
<title>Node1&#45;&gt;Node32</title>
<path fill="none" stroke="midnightblue" d="M447.44,-492.25C442.25,-473.74 431,-429.18 431,-391 431,-391 431,-391 431,-271.5 431,-230.74 422.02,-183.62 416.4,-158.16"/>
<polygon fill="midnightblue" stroke="midnightblue" points="419.74,-157.06 414.11,-148.09 412.92,-158.61 419.74,-157.06"/>
</g>
<!-- Node35 -->
<g id="node35" class="node">
<title>Node35</title>
<g id="a_node35"><a xlink:href="v8_8h.html" target="_top" xlink:title=" ">
<polygon fill="white" stroke="black" points="347.5,-196 347.5,-215 382.5,-215 382.5,-196 347.5,-196"/>
<text text-anchor="middle" x="365" y="-203" font-family="Helvetica,sans-Serif" font-size="10.00">v8.h</text>
</a>
</g>
</g>
<!-- Node1&#45;&gt;Node35 -->
<g id="edge76" class="edge">
<title>Node1&#45;&gt;Node35</title>
<path fill="none" stroke="midnightblue" d="M439.82,-492.46C420.63,-475.35 381,-434.73 381,-391 381,-391 381,-391 381,-333 381,-294.4 373.58,-249.69 368.84,-225.1"/>
<polygon fill="midnightblue" stroke="midnightblue" points="372.22,-224.16 366.84,-215.04 365.36,-225.53 372.22,-224.16"/>
</g>
<!-- Node5 -->
<g id="node5" class="node">
<title>Node5</title>
<g id="a_node5"><a xlink:title=" ">
<polygon fill="white" stroke="#bfbfbf" points="584.5,-62 584.5,-81 635.5,-81 635.5,-62 584.5,-62"/>
<text text-anchor="middle" x="610" y="-69" font-family="Helvetica,sans-Serif" font-size="10.00">stddef.h</text>
</a>
</g>
</g>
<!-- Node4&#45;&gt;Node5 -->
<g id="edge4" class="edge">
<title>Node4&#45;&gt;Node5</title>
<path fill="none" stroke="midnightblue" d="M622.15,-195.84C620.06,-174.67 614.67,-119.95 611.83,-91.03"/>
<polygon fill="midnightblue" stroke="midnightblue" points="615.3,-90.63 610.84,-81.02 608.34,-91.32 615.3,-90.63"/>
</g>
<!-- Node6&#45;&gt;Node4 -->
<g id="edge6" class="edge">
<title>Node6&#45;&gt;Node4</title>
<path fill="none" stroke="midnightblue" d="M1319,-440.55C1216.85,-428.02 939.77,-386.75 732,-288 695.61,-270.71 659.34,-240.29 639.18,-221.91"/>
<polygon fill="midnightblue" stroke="midnightblue" points="641.51,-219.3 631.8,-215.06 636.75,-224.43 641.51,-219.3"/>
</g>
<!-- Node7 -->
<g id="node7" class="node">
<title>Node7</title>
<g id="a_node7"><a xlink:href="ephemeron-pair_8h.html" target="_top" xlink:title=" ">
<polygon fill="white" stroke="black" points="1475,-380.5 1475,-399.5 1595,-399.5 1595,-380.5 1475,-380.5"/>
<text text-anchor="middle" x="1535" y="-387.5" font-family="Helvetica,sans-Serif" font-size="10.00">cppgc/ephemeron&#45;pair.h</text>
</a>
</g>
</g>
<!-- Node6&#45;&gt;Node7 -->
<g id="edge7" class="edge">
<title>Node6&#45;&gt;Node7</title>
<path fill="none" stroke="midnightblue" d="M1386.89,-436.44C1416.75,-427.28 1464.31,-412.69 1497.46,-402.52"/>
<polygon fill="midnightblue" stroke="midnightblue" points="1498.71,-405.8 1507.24,-399.52 1496.66,-399.1 1498.71,-405.8"/>
</g>
<!-- Node8 -->
<g id="node8" class="node">
<title>Node8</title>
<g id="a_node8"><a xlink:href="member_8h.html" target="_top" xlink:title=" ">
<polygon fill="white" stroke="black" points="1402.5,-324.5 1402.5,-343.5 1491.5,-343.5 1491.5,-324.5 1402.5,-324.5"/>
<text text-anchor="middle" x="1447" y="-331.5" font-family="Helvetica,sans-Serif" font-size="10.00">cppgc/member.h</text>
</a>
</g>
</g>
<!-- Node6&#45;&gt;Node8 -->
<g id="edge65" class="edge">
<title>Node6&#45;&gt;Node8</title>
<path fill="none" stroke="midnightblue" d="M1379.7,-436.35C1395.14,-428.88 1415.64,-416.65 1428,-400 1437.97,-386.58 1442.72,-368.01 1444.98,-354.16"/>
<polygon fill="midnightblue" stroke="midnightblue" points="1448.5,-354.22 1446.35,-343.85 1441.57,-353.3 1448.5,-354.22"/>
</g>
<!-- Node12 -->
<g id="node12" class="node">
<title>Node12</title>
<g id="a_node12"><a xlink:href="pointer-policies_8h.html" target="_top" xlink:title=" ">
<polygon fill="white" stroke="black" points="1216,-257.5 1216,-287.5 1326,-287.5 1326,-257.5 1216,-257.5"/>
<text text-anchor="start" x="1224" y="-275.5" font-family="Helvetica,sans-Serif" font-size="10.00">cppgc/internal/pointer</text>
<text text-anchor="middle" x="1271" y="-264.5" font-family="Helvetica,sans-Serif" font-size="10.00">&#45;policies.h</text>
</a>
</g>
</g>
<!-- Node6&#45;&gt;Node12 -->
<g id="edge52" class="edge">
<title>Node6&#45;&gt;Node12</title>
<path fill="none" stroke="midnightblue" d="M1337,-436.49C1321.29,-429.23 1301.05,-417.21 1290,-400 1270.06,-368.96 1268,-324.94 1269.01,-297.86"/>
<polygon fill="midnightblue" stroke="midnightblue" points="1272.51,-297.88 1269.56,-287.7 1265.52,-297.5 1272.51,-297.88"/>
</g>
<!-- Node20 -->
<g id="node20" class="node">
<title>Node20</title>
<g id="a_node20"><a xlink:href="source-location_8h.html" target="_top" xlink:title=" ">
<polygon fill="white" stroke="black" points="844.5,-196 844.5,-215 963.5,-215 963.5,-196 844.5,-196"/>
<text text-anchor="middle" x="904" y="-203" font-family="Helvetica,sans-Serif" font-size="10.00">cppgc/source&#45;location.h</text>
</a>
</g>
</g>
<!-- Node6&#45;&gt;Node20 -->
<g id="edge66" class="edge">
<title>Node6&#45;&gt;Node20</title>
<path fill="none" stroke="midnightblue" d="M1335.12,-436.4C1311.84,-427.83 1275.58,-413.96 1245,-400 1146.98,-355.27 1123.11,-342.21 1030,-288 992.27,-266.03 949.94,-237.9 925.2,-221.09"/>
<polygon fill="midnightblue" stroke="midnightblue" points="926.86,-217.98 916.63,-215.23 922.92,-223.76 926.86,-217.98"/>
</g>
<!-- Node22 -->
<g id="node22" class="node">
<title>Node22</title>
<g id="a_node22"><a xlink:href="type-traits_8h.html" target="_top" xlink:title=" ">
<polygon fill="white" stroke="black" points="1658,-129 1658,-148 1754,-148 1754,-129 1658,-129"/>
<text text-anchor="middle" x="1706" y="-136" font-family="Helvetica,sans-Serif" font-size="10.00">cppgc/type&#45;traits.h</text>
</a>
</g>
</g>
<!-- Node6&#45;&gt;Node22 -->
<g id="edge68" class="edge">
<title>Node6&#45;&gt;Node22</title>
<path fill="none" stroke="midnightblue" d="M1399.35,-444.48C1516.27,-441.9 1847,-426.52 1847,-335 1847,-335 1847,-335 1847,-271.5 1847,-211.77 1778.74,-171.25 1737.2,-152.13"/>
<polygon fill="midnightblue" stroke="midnightblue" points="1738.59,-148.92 1728.03,-148.05 1735.75,-155.31 1738.59,-148.92"/>
</g>
<!-- Node23 -->
<g id="node23" class="node">
<title>Node23</title>
<g id="a_node23"><a xlink:href="garbage-collected_8h.html" target="_top" xlink:title=" ">
<polygon fill="white" stroke="black" points="1537,-263 1537,-282 1667,-282 1667,-263 1537,-263"/>
<text text-anchor="middle" x="1602" y="-270" font-family="Helvetica,sans-Serif" font-size="10.00">cppgc/garbage&#45;collected.h</text>
</a>
</g>
</g>
<!-- Node6&#45;&gt;Node23 -->
<g id="edge32" class="edge">
<title>Node6&#45;&gt;Node23</title>
<path fill="none" stroke="midnightblue" d="M1399.17,-443.63C1461.85,-440.55 1578.4,-430.74 1604,-400 1629.45,-369.45 1617.9,-318.84 1608.96,-291.82"/>
<polygon fill="midnightblue" stroke="midnightblue" points="1612.16,-290.37 1605.51,-282.11 1605.56,-292.71 1612.16,-290.37"/>
</g>
<!-- Node27 -->
<g id="node27" class="node">
<title>Node27</title>
<g id="a_node27"><a xlink:href="trace-trait_8h.html" target="_top" xlink:title=" ">
<polygon fill="white" stroke="black" points="1582.5,-196 1582.5,-215 1677.5,-215 1677.5,-196 1582.5,-196"/>
<text text-anchor="middle" x="1630" y="-203" font-family="Helvetica,sans-Serif" font-size="10.00">cppgc/trace&#45;trait.h</text>
</a>
</g>
</g>
<!-- Node6&#45;&gt;Node27 -->
<g id="edge67" class="edge">
<title>Node6&#45;&gt;Node27</title>
<path fill="none" stroke="midnightblue" d="M1399.12,-442.19C1463.71,-437.02 1587.11,-424.22 1623,-400 1681.49,-360.52 1722.29,-320.74 1692,-257 1684.59,-241.41 1669.76,-229.06 1656.46,-220.47"/>
<polygon fill="midnightblue" stroke="midnightblue" points="1657.98,-217.3 1647.61,-215.13 1654.36,-223.29 1657.98,-217.3"/>
</g>
<!-- Node28 -->
<g id="node28" class="node">
<title>Node28</title>
<g id="a_node28"><a xlink:href="logging_8h.html" target="_top" xlink:title=" ">
<polygon fill="white" stroke="black" points="1039.5,-263 1039.5,-282 1158.5,-282 1158.5,-263 1039.5,-263"/>
<text text-anchor="middle" x="1099" y="-270" font-family="Helvetica,sans-Serif" font-size="10.00">cppgc/internal/logging.h</text>
</a>
</g>
</g>
<!-- Node6&#45;&gt;Node28 -->
<g id="edge49" class="edge">
<title>Node6&#45;&gt;Node28</title>
<path fill="none" stroke="midnightblue" d="M1342.03,-436.42C1325.21,-427.75 1298.88,-413.71 1277,-400 1217.39,-362.64 1150.68,-312.98 1118.48,-288.48"/>
<polygon fill="midnightblue" stroke="midnightblue" points="1120.42,-285.55 1110.34,-282.27 1116.17,-291.12 1120.42,-285.55"/>
</g>
<!-- Node29 -->
<g id="node29" class="node">
<title>Node29</title>
<g id="a_node29"><a xlink:href="liveness-broker_8h.html" target="_top" xlink:title=" ">
<polygon fill="white" stroke="black" points="1299.5,-380.5 1299.5,-399.5 1418.5,-399.5 1418.5,-380.5 1299.5,-380.5"/>
<text text-anchor="middle" x="1359" y="-387.5" font-family="Helvetica,sans-Serif" font-size="10.00">cppgc/liveness&#45;broker.h</text>
</a>
</g>
</g>
<!-- Node6&#45;&gt;Node29 -->
<g id="edge53" class="edge">
<title>Node6&#45;&gt;Node29</title>
<path fill="none" stroke="midnightblue" d="M1359,-436.08C1359,-429.01 1359,-418.86 1359,-409.99"/>
<polygon fill="midnightblue" stroke="midnightblue" points="1362.5,-409.75 1359,-399.75 1355.5,-409.75 1362.5,-409.75"/>
</g>
<!-- Node7&#45;&gt;Node8 -->
<g id="edge8" class="edge">
<title>Node7&#45;&gt;Node8</title>
<path fill="none" stroke="midnightblue" d="M1520.86,-380.32C1507.13,-371.9 1486.06,-358.97 1469.94,-349.07"/>
<polygon fill="midnightblue" stroke="midnightblue" points="1471.46,-345.9 1461.1,-343.65 1467.8,-351.87 1471.46,-345.9"/>
</g>
<!-- Node9 -->
<g id="node9" class="node">
<title>Node9</title>
<g id="a_node9"><a xlink:title=" ">
<polygon fill="white" stroke="#bfbfbf" points="1293,-0.5 1293,-19.5 1339,-19.5 1339,-0.5 1293,-0.5"/>
<text text-anchor="middle" x="1316" y="-7.5" font-family="Helvetica,sans-Serif" font-size="10.00">atomic</text>
</a>
</g>
</g>
<!-- Node8&#45;&gt;Node9 -->
<g id="edge9" class="edge">
<title>Node8&#45;&gt;Node9</title>
<path fill="none" stroke="midnightblue" d="M1491.96,-331.36C1544.19,-328.04 1632.03,-318.05 1701,-288 1756.13,-263.98 1809,-266.63 1809,-206.5 1809,-206.5 1809,-206.5 1809,-137.5 1809,-42.36 1460.2,-17.77 1349.38,-12.36"/>
<polygon fill="midnightblue" stroke="midnightblue" points="1349.27,-8.85 1339.12,-11.88 1348.94,-15.84 1349.27,-8.85"/>
</g>
<!-- Node10 -->
<g id="node10" class="node">
<title>Node10</title>
<g id="a_node10"><a xlink:title=" ">
<polygon fill="white" stroke="#bfbfbf" points="1469.5,-263 1469.5,-282 1518.5,-282 1518.5,-263 1469.5,-263"/>
<text text-anchor="middle" x="1494" y="-270" font-family="Helvetica,sans-Serif" font-size="10.00">cstddef</text>
</a>
</g>
</g>
<!-- Node8&#45;&gt;Node10 -->
<g id="edge10" class="edge">
<title>Node8&#45;&gt;Node10</title>
<path fill="none" stroke="midnightblue" d="M1453.73,-324.48C1460.78,-315.55 1472.03,-301.31 1480.85,-290.14"/>
<polygon fill="midnightblue" stroke="midnightblue" points="1483.83,-292.03 1487.28,-282.01 1478.33,-287.69 1483.83,-292.03"/>
</g>
<!-- Node11 -->
<g id="node11" class="node">
<title>Node11</title>
<g id="a_node11"><a xlink:title=" ">
<polygon fill="white" stroke="#bfbfbf" points="1485,-62 1485,-81 1547,-81 1547,-62 1485,-62"/>
<text text-anchor="middle" x="1516" y="-69" font-family="Helvetica,sans-Serif" font-size="10.00">type_traits</text>
</a>
</g>
</g>
<!-- Node8&#45;&gt;Node11 -->
<g id="edge11" class="edge">
<title>Node8&#45;&gt;Node11</title>
<path fill="none" stroke="midnightblue" d="M1447.37,-324.21C1448.25,-309.67 1451.19,-279.95 1461,-257 1468.76,-238.85 1479.15,-239.11 1487,-221 1506.01,-177.15 1512.65,-120.63 1514.9,-91.59"/>
<polygon fill="midnightblue" stroke="midnightblue" points="1518.41,-91.47 1515.6,-81.26 1511.43,-91 1518.41,-91.47"/>
</g>
<!-- Node8&#45;&gt;Node12 -->
<g id="edge12" class="edge">
<title>Node8&#45;&gt;Node12</title>
<path fill="none" stroke="midnightblue" d="M1421.78,-324.48C1395.94,-315.74 1355.03,-301.91 1322.34,-290.86"/>
<polygon fill="midnightblue" stroke="midnightblue" points="1323.07,-287.41 1312.48,-287.52 1320.83,-294.04 1323.07,-287.41"/>
</g>
<!-- Node17 -->
<g id="node17" class="node">
<title>Node17</title>
<g id="a_node17"><a xlink:href="v8config_8h.html" target="_top" xlink:title=" ">
<polygon fill="white" stroke="black" points="1048,-62 1048,-81 1108,-81 1108,-62 1048,-62"/>
<text text-anchor="middle" x="1078" y="-69" font-family="Helvetica,sans-Serif" font-size="10.00">v8config.h</text>
</a>
</g>
</g>
<!-- Node8&#45;&gt;Node17 -->
<g id="edge31" class="edge">
<title>Node8&#45;&gt;Node17</title>
<path fill="none" stroke="midnightblue" d="M1447.48,-324.35C1448.76,-291.66 1448.45,-174.8 1383,-123 1362.48,-106.76 1196.27,-85.96 1118.21,-76.97"/>
<polygon fill="midnightblue" stroke="midnightblue" points="1118.58,-73.49 1108.25,-75.83 1117.79,-80.44 1118.58,-73.49"/>
</g>
<!-- Node8&#45;&gt;Node22 -->
<g id="edge29" class="edge">
<title>Node8&#45;&gt;Node22</title>
<path fill="none" stroke="midnightblue" d="M1491.9,-329.01C1550.24,-323.03 1647.96,-310.02 1676,-288 1715.23,-257.19 1712.8,-190.54 1708.91,-158.05"/>
<polygon fill="midnightblue" stroke="midnightblue" points="1712.37,-157.53 1707.53,-148.1 1705.43,-158.48 1712.37,-157.53"/>
</g>
<!-- Node12&#45;&gt;Node11 -->
<g id="edge14" class="edge">
<title>Node12&#45;&gt;Node11</title>
<path fill="none" stroke="midnightblue" d="M1309.59,-257.48C1330.86,-248.75 1357.11,-236.28 1378,-221 1431.81,-181.65 1481.53,-119.24 1503.77,-89.43"/>
<polygon fill="midnightblue" stroke="midnightblue" points="1506.65,-91.42 1509.76,-81.29 1501.01,-87.27 1506.65,-91.42"/>
</g>
<!-- Node13 -->
<g id="node13" class="node">
<title>Node13</title>
<g id="a_node13"><a xlink:title=" ">
<polygon fill="white" stroke="#bfbfbf" points="1165,-196 1165,-215 1211,-215 1211,-196 1165,-196"/>
<text text-anchor="middle" x="1188" y="-203" font-family="Helvetica,sans-Serif" font-size="10.00">cstdint</text>
</a>
</g>
</g>
<!-- Node12&#45;&gt;Node13 -->
<g id="edge13" class="edge">
<title>Node12&#45;&gt;Node13</title>
<path fill="none" stroke="midnightblue" d="M1252.99,-257.4C1239.41,-246.76 1220.82,-232.2 1207,-221.38"/>
<polygon fill="midnightblue" stroke="midnightblue" points="1209.13,-218.6 1199.1,-215.19 1204.82,-224.12 1209.13,-218.6"/>
</g>
<!-- Node14 -->
<g id="node14" class="node">
<title>Node14</title>
<g id="a_node14"><a xlink:href="write-barrier_8h.html" target="_top" xlink:title=" ">
<polygon fill="white" stroke="black" points="1267.5,-190.5 1267.5,-220.5 1368.5,-220.5 1368.5,-190.5 1267.5,-190.5"/>
<text text-anchor="start" x="1275.5" y="-208.5" font-family="Helvetica,sans-Serif" font-size="10.00">cppgc/internal/write</text>
<text text-anchor="middle" x="1318" y="-197.5" font-family="Helvetica,sans-Serif" font-size="10.00">&#45;barrier.h</text>
</a>
</g>
</g>
<!-- Node12&#45;&gt;Node14 -->
<g id="edge15" class="edge">
<title>Node12&#45;&gt;Node14</title>
<path fill="none" stroke="midnightblue" d="M1281.2,-257.4C1287.23,-249.05 1295.02,-238.29 1301.87,-228.81"/>
<polygon fill="midnightblue" stroke="midnightblue" points="1304.8,-230.73 1307.82,-220.58 1299.13,-226.63 1304.8,-230.73"/>
</g>
<!-- Node12&#45;&gt;Node17 -->
<g id="edge28" class="edge">
<title>Node12&#45;&gt;Node17</title>
<path fill="none" stroke="midnightblue" d="M1220.02,-257.46C1198.32,-249.51 1173.94,-237.73 1156,-221 1135.25,-201.65 1100.9,-125.73 1085.67,-90.56"/>
<polygon fill="midnightblue" stroke="midnightblue" points="1088.76,-88.87 1081.6,-81.06 1082.33,-91.63 1088.76,-88.87"/>
</g>
<!-- Node12&#45;&gt;Node20 -->
<g id="edge25" class="edge">
<title>Node12&#45;&gt;Node20</title>
<path fill="none" stroke="midnightblue" d="M1215.77,-262.9C1155.66,-253.37 1056.81,-237.2 972,-221 965.78,-219.81 959.24,-218.5 952.79,-217.17"/>
<polygon fill="midnightblue" stroke="midnightblue" points="953.28,-213.69 942.78,-215.07 951.85,-220.55 953.28,-213.69"/>
</g>
<!-- Node15 -->
<g id="node15" class="node">
<title>Node15</title>
<g id="a_node15"><a xlink:href="api-constants_8h.html" target="_top" xlink:title=" ">
<polygon fill="white" stroke="black" points="880.5,-123.5 880.5,-153.5 973.5,-153.5 973.5,-123.5 880.5,-123.5"/>
<text text-anchor="start" x="888.5" y="-141.5" font-family="Helvetica,sans-Serif" font-size="10.00">cppgc/internal/api</text>
<text text-anchor="middle" x="927" y="-130.5" font-family="Helvetica,sans-Serif" font-size="10.00">&#45;constants.h</text>
</a>
</g>
</g>
<!-- Node14&#45;&gt;Node15 -->
<g id="edge16" class="edge">
<title>Node14&#45;&gt;Node15</title>
<path fill="none" stroke="midnightblue" d="M1267.32,-192.86C1262.49,-191.85 1257.66,-190.88 1253,-190 1158.98,-172.25 1048.84,-156.16 983.66,-147.12"/>
<polygon fill="midnightblue" stroke="midnightblue" points="983.98,-143.63 973.59,-145.73 983.02,-150.57 983.98,-143.63"/>
</g>
<!-- Node14&#45;&gt;Node17 -->
<g id="edge24" class="edge">
<title>Node14&#45;&gt;Node17</title>
<path fill="none" stroke="midnightblue" d="M1287.18,-190.36C1266.69,-180.7 1239.37,-167.27 1216,-154 1193.92,-141.46 1189.75,-136.11 1168,-123 1146.31,-109.93 1121.13,-95.89 1102.93,-85.95"/>
<polygon fill="midnightblue" stroke="midnightblue" points="1104.56,-82.85 1094.1,-81.14 1101.22,-89 1104.56,-82.85"/>
</g>
<!-- Node18 -->
<g id="node18" class="node">
<title>Node18</title>
<g id="a_node18"><a xlink:href="process-heap_8h.html" target="_top" xlink:title=" ">
<polygon fill="white" stroke="black" points="1258.5,-123.5 1258.5,-153.5 1373.5,-153.5 1373.5,-123.5 1258.5,-123.5"/>
<text text-anchor="start" x="1266.5" y="-141.5" font-family="Helvetica,sans-Serif" font-size="10.00">cppgc/internal/process</text>
<text text-anchor="middle" x="1316" y="-130.5" font-family="Helvetica,sans-Serif" font-size="10.00">&#45;heap.h</text>
</a>
</g>
</g>
<!-- Node14&#45;&gt;Node18 -->
<g id="edge20" class="edge">
<title>Node14&#45;&gt;Node18</title>
<path fill="none" stroke="midnightblue" d="M1317.57,-190.4C1317.33,-182.64 1317.02,-172.81 1316.75,-163.86"/>
<polygon fill="midnightblue" stroke="midnightblue" points="1320.24,-163.46 1316.43,-153.58 1313.24,-163.68 1320.24,-163.46"/>
</g>
<!-- Node15&#45;&gt;Node5 -->
<g id="edge17" class="edge">
<title>Node15&#45;&gt;Node5</title>
<path fill="none" stroke="midnightblue" d="M880.33,-125.06C877.18,-124.33 874.05,-123.64 871,-123 771.43,-102.23 742.88,-114.65 645,-87 642.56,-86.31 640.07,-85.5 637.59,-84.62"/>
<polygon fill="midnightblue" stroke="midnightblue" points="638.83,-81.35 628.24,-81 636.3,-87.88 638.83,-81.35"/>
</g>
<!-- Node16 -->
<g id="node16" class="node">
<title>Node16</title>
<g id="a_node16"><a xlink:title=" ">
<polygon fill="white" stroke="#bfbfbf" points="654,-62 654,-81 702,-81 702,-62 654,-62"/>
<text text-anchor="middle" x="678" y="-69" font-family="Helvetica,sans-Serif" font-size="10.00">stdint.h</text>
</a>
</g>
</g>
<!-- Node15&#45;&gt;Node16 -->
<g id="edge18" class="edge">
<title>Node15&#45;&gt;Node16</title>
<path fill="none" stroke="midnightblue" d="M880.28,-125.28C877.14,-124.5 874.03,-123.73 871,-123 800.15,-105.86 780.24,-109.77 711,-87 709.13,-86.38 707.22,-85.7 705.3,-84.97"/>
<polygon fill="midnightblue" stroke="midnightblue" points="706.49,-81.68 695.91,-81.12 703.83,-88.15 706.49,-81.68"/>
</g>
<!-- Node15&#45;&gt;Node17 -->
<g id="edge19" class="edge">
<title>Node15&#45;&gt;Node17</title>
<path fill="none" stroke="midnightblue" d="M959.76,-123.4C986.26,-111.99 1023.22,-96.08 1048.73,-85.1"/>
<polygon fill="midnightblue" stroke="midnightblue" points="1050.44,-88.18 1058.24,-81.01 1047.67,-81.75 1050.44,-88.18"/>
</g>
<!-- Node18&#45;&gt;Node17 -->
<g id="edge23" class="edge">
<title>Node18&#45;&gt;Node17</title>
<path fill="none" stroke="midnightblue" d="M1264.65,-123.48C1220.69,-111.47 1158.27,-94.42 1117.96,-83.41"/>
<polygon fill="midnightblue" stroke="midnightblue" points="1118.78,-80.01 1108.21,-80.75 1116.93,-86.76 1118.78,-80.01"/>
</g>
<!-- Node19 -->
<g id="node19" class="node">
<title>Node19</title>
<g id="a_node19"><a xlink:href="atomic-entry-flag_8h.html" target="_top" xlink:title=" ">
<polygon fill="white" stroke="black" points="1261,-56.5 1261,-86.5 1371,-86.5 1371,-56.5 1261,-56.5"/>
<text text-anchor="start" x="1269" y="-74.5" font-family="Helvetica,sans-Serif" font-size="10.00">cppgc/internal/atomic</text>
<text text-anchor="middle" x="1316" y="-63.5" font-family="Helvetica,sans-Serif" font-size="10.00">&#45;entry&#45;flag.h</text>
</a>
</g>
</g>
<!-- Node18&#45;&gt;Node19 -->
<g id="edge21" class="edge">
<title>Node18&#45;&gt;Node19</title>
<path fill="none" stroke="midnightblue" d="M1316,-123.4C1316,-115.64 1316,-105.81 1316,-96.86"/>
<polygon fill="midnightblue" stroke="midnightblue" points="1319.5,-96.58 1316,-86.58 1312.5,-96.58 1319.5,-96.58"/>
</g>
<!-- Node19&#45;&gt;Node9 -->
<g id="edge22" class="edge">
<title>Node19&#45;&gt;Node9</title>
<path fill="none" stroke="midnightblue" d="M1316,-56.4C1316,-48.47 1316,-38.46 1316,-29.86"/>
<polygon fill="midnightblue" stroke="midnightblue" points="1319.5,-29.66 1316,-19.66 1312.5,-29.66 1319.5,-29.66"/>
</g>
<!-- Node20&#45;&gt;Node17 -->
<g id="edge27" class="edge">
<title>Node20&#45;&gt;Node17</title>
<path fill="none" stroke="midnightblue" d="M932.83,-195.94C956.81,-187.83 990.96,-173.92 1016,-154 1038.54,-136.07 1057.38,-108.2 1068.18,-90.14"/>
<polygon fill="midnightblue" stroke="midnightblue" points="1071.34,-91.66 1073.32,-81.25 1065.28,-88.15 1071.34,-91.66"/>
</g>
<!-- Node21 -->
<g id="node21" class="node">
<title>Node21</title>
<g id="a_node21"><a xlink:title=" ">
<polygon fill="white" stroke="#bfbfbf" points="525.5,-62 525.5,-81 566.5,-81 566.5,-62 525.5,-62"/>
<text text-anchor="middle" x="546" y="-69" font-family="Helvetica,sans-Serif" font-size="10.00">string</text>
</a>
</g>
</g>
<!-- Node20&#45;&gt;Node21 -->
<g id="edge26" class="edge">
<title>Node20&#45;&gt;Node21</title>
<path fill="none" stroke="midnightblue" d="M844.39,-203.09C787.11,-199.57 699.51,-188.38 632,-154 601.14,-138.29 573.68,-108 558.49,-89.1"/>
<polygon fill="midnightblue" stroke="midnightblue" points="561.14,-86.81 552.23,-81.08 555.63,-91.11 561.14,-86.81"/>
</g>
<!-- Node22&#45;&gt;Node11 -->
<g id="edge30" class="edge">
<title>Node22&#45;&gt;Node11</title>
<path fill="none" stroke="midnightblue" d="M1680.77,-128.87C1647.32,-117.42 1588.14,-97.18 1550.56,-84.32"/>
<polygon fill="midnightblue" stroke="midnightblue" points="1551.63,-80.99 1541.03,-81.06 1549.36,-87.61 1551.63,-80.99"/>
</g>
<!-- Node23&#45;&gt;Node11 -->
<g id="edge33" class="edge">
<title>Node23&#45;&gt;Node11</title>
<path fill="none" stroke="midnightblue" d="M1596.68,-262.75C1590.75,-252.82 1581.08,-236.06 1574,-221 1552.49,-175.22 1532.13,-119.13 1522.25,-90.78"/>
<polygon fill="midnightblue" stroke="midnightblue" points="1525.46,-89.35 1518.88,-81.04 1518.84,-91.63 1525.46,-89.35"/>
</g>
<!-- Node23&#45;&gt;Node15 -->
<g id="edge34" class="edge">
<title>Node23&#45;&gt;Node15</title>
<path fill="none" stroke="midnightblue" d="M1560.59,-262.92C1549.99,-260.86 1538.59,-258.74 1528,-257 1408.54,-237.35 1369.1,-269.08 1258,-221 1238,-212.34 1239.83,-199.04 1220,-190 1143.07,-154.95 1044.65,-144.08 983.73,-140.79"/>
<polygon fill="midnightblue" stroke="midnightblue" points="983.7,-137.29 973.54,-140.3 983.36,-144.28 983.7,-137.29"/>
</g>
<!-- Node23&#45;&gt;Node22 -->
<g id="edge48" class="edge">
<title>Node23&#45;&gt;Node22</title>
<path fill="none" stroke="midnightblue" d="M1627,-262.9C1646.28,-254.99 1672.1,-241.36 1687,-221 1700.52,-202.54 1704.59,-175.94 1705.73,-158.21"/>
<polygon fill="midnightblue" stroke="midnightblue" points="1709.23,-158.14 1706.12,-148.01 1702.24,-157.87 1709.23,-158.14"/>
</g>
<!-- Node24 -->
<g id="node24" class="node">
<title>Node24</title>
<g id="a_node24"><a xlink:href="platform_8h.html" target="_top" xlink:title=" ">
<polygon fill="white" stroke="black" points="981.5,-196 981.5,-215 1070.5,-215 1070.5,-196 981.5,-196"/>
<text text-anchor="middle" x="1026" y="-203" font-family="Helvetica,sans-Serif" font-size="10.00">cppgc/platform.h</text>
</a>
</g>
</g>
<!-- Node23&#45;&gt;Node24 -->
<g id="edge35" class="edge">
<title>Node23&#45;&gt;Node24</title>
<path fill="none" stroke="midnightblue" d="M1562.18,-262.96C1551.15,-260.8 1539.14,-258.63 1528,-257 1363.64,-233 1321.21,-238.21 1156,-221 1131.21,-218.42 1103.78,-215.38 1080.53,-212.76"/>
<polygon fill="midnightblue" stroke="midnightblue" points="1080.84,-209.27 1070.51,-211.63 1080.05,-216.23 1080.84,-209.27"/>
</g>
<!-- Node23&#45;&gt;Node27 -->
<g id="edge44" class="edge">
<title>Node23&#45;&gt;Node27</title>
<path fill="none" stroke="midnightblue" d="M1605.78,-262.73C1609.97,-252.99 1616.87,-236.98 1622.23,-224.53"/>
<polygon fill="midnightblue" stroke="midnightblue" points="1625.54,-225.7 1626.28,-215.13 1619.11,-222.93 1625.54,-225.7"/>
</g>
<!-- Node24&#45;&gt;Node17 -->
<g id="edge43" class="edge">
<title>Node24&#45;&gt;Node17</title>
<path fill="none" stroke="midnightblue" d="M1031.57,-195.86C1037.71,-186.03 1047.58,-169.35 1054,-154 1062.7,-133.22 1069.56,-108.22 1073.68,-91.44"/>
<polygon fill="midnightblue" stroke="midnightblue" points="1077.19,-91.82 1076.09,-81.28 1070.38,-90.21 1077.19,-91.82"/>
</g>
<!-- Node25 -->
<g id="node25" class="node">
<title>Node25</title>
<g id="a_node25"><a xlink:href="v8-platform_8h.html" target="_top" xlink:title=" ">
<polygon fill="white" stroke="black" points="641.5,-129 641.5,-148 714.5,-148 714.5,-129 641.5,-129"/>
<text text-anchor="middle" x="678" y="-136" font-family="Helvetica,sans-Serif" font-size="10.00">v8&#45;platform.h</text>
</a>
</g>
</g>
<!-- Node24&#45;&gt;Node25 -->
<g id="edge36" class="edge">
<title>Node24&#45;&gt;Node25</title>
<path fill="none" stroke="midnightblue" d="M996.13,-195.95C988.31,-193.86 979.87,-191.73 972,-190 879.51,-169.7 855.32,-170.05 762,-154 749.92,-151.92 736.87,-149.67 724.73,-147.58"/>
<polygon fill="midnightblue" stroke="midnightblue" points="725.25,-144.11 714.8,-145.86 724.06,-151.01 725.25,-144.11"/>
</g>
<!-- Node25&#45;&gt;Node2 -->
<g id="edge40" class="edge">
<title>Node25&#45;&gt;Node2</title>
<path fill="none" stroke="midnightblue" d="M641.45,-132.97C617.23,-130.02 584.73,-126.14 556,-123 379.3,-103.7 167.63,-83.59 84.75,-75.82"/>
<polygon fill="midnightblue" stroke="midnightblue" points="84.89,-72.32 74.61,-74.88 84.24,-79.29 84.89,-72.32"/>
</g>
<!-- Node25&#45;&gt;Node5 -->
<g id="edge37" class="edge">
<title>Node25&#45;&gt;Node5</title>
<path fill="none" stroke="midnightblue" d="M668.83,-128.73C658.02,-118.4 639.85,-101.04 626.56,-88.33"/>
<polygon fill="midnightblue" stroke="midnightblue" points="628.67,-85.51 619.03,-81.13 623.84,-90.57 628.67,-85.51"/>
</g>
<!-- Node25&#45;&gt;Node16 -->
<g id="edge38" class="edge">
<title>Node25&#45;&gt;Node16</title>
<path fill="none" stroke="midnightblue" d="M678,-128.73C678,-119.18 678,-103.62 678,-91.28"/>
<polygon fill="midnightblue" stroke="midnightblue" points="681.5,-91.13 678,-81.13 674.5,-91.13 681.5,-91.13"/>
</g>
<!-- Node25&#45;&gt;Node17 -->
<g id="edge42" class="edge">
<title>Node25&#45;&gt;Node17</title>
<path fill="none" stroke="midnightblue" d="M705.36,-129C712.96,-126.83 721.26,-124.65 729,-123 839.59,-99.39 972.29,-83.56 1037.62,-76.57"/>
<polygon fill="midnightblue" stroke="midnightblue" points="1038.31,-80.02 1047.88,-75.49 1037.57,-73.06 1038.31,-80.02"/>
</g>
<!-- Node25&#45;&gt;Node21 -->
<g id="edge41" class="edge">
<title>Node25&#45;&gt;Node21</title>
<path fill="none" stroke="midnightblue" d="M660.48,-128.96C639.97,-118.96 604.98,-101.85 575,-87 574.16,-86.58 573.31,-86.16 572.45,-85.74"/>
<polygon fill="midnightblue" stroke="midnightblue" points="573.68,-82.44 563.16,-81.11 570.55,-88.7 573.68,-82.44"/>
</g>
<!-- Node26 -->
<g id="node26" class="node">
<title>Node26</title>
<g id="a_node26"><a xlink:title=" ">
<polygon fill="white" stroke="#bfbfbf" points="720.5,-62 720.5,-81 767.5,-81 767.5,-62 720.5,-62"/>
<text text-anchor="middle" x="744" y="-69" font-family="Helvetica,sans-Serif" font-size="10.00">stdlib.h</text>
</a>
</g>
</g>
<!-- Node25&#45;&gt;Node26 -->
<g id="edge39" class="edge">
<title>Node25&#45;&gt;Node26</title>
<path fill="none" stroke="midnightblue" d="M686.9,-128.73C697.39,-118.4 715.02,-101.04 727.92,-88.33"/>
<polygon fill="midnightblue" stroke="midnightblue" points="730.57,-90.64 735.24,-81.13 725.66,-85.65 730.57,-90.64"/>
</g>
<!-- Node27&#45;&gt;Node11 -->
<g id="edge45" class="edge">
<title>Node27&#45;&gt;Node11</title>
<path fill="none" stroke="midnightblue" d="M1629.56,-195.92C1628.33,-179.92 1623.65,-145.15 1606,-123 1592.12,-105.58 1570.49,-93.17 1551.92,-85.01"/>
<polygon fill="midnightblue" stroke="midnightblue" points="1553.12,-81.72 1542.54,-81.13 1550.44,-88.19 1553.12,-81.72"/>
</g>
<!-- Node27&#45;&gt;Node17 -->
<g id="edge47" class="edge">
<title>Node27&#45;&gt;Node17</title>
<path fill="none" stroke="midnightblue" d="M1611.55,-195.91C1575.04,-179.27 1490.61,-142.54 1416,-123 1310.52,-95.38 1182.3,-81.39 1118.35,-75.7"/>
<polygon fill="midnightblue" stroke="midnightblue" points="1118.54,-72.2 1108.28,-74.82 1117.94,-79.17 1118.54,-72.2"/>
</g>
<!-- Node27&#45;&gt;Node22 -->
<g id="edge46" class="edge">
<title>Node27&#45;&gt;Node22</title>
<path fill="none" stroke="midnightblue" d="M1640.25,-195.73C1652.44,-185.31 1673.02,-167.71 1687.91,-154.97"/>
<polygon fill="midnightblue" stroke="midnightblue" points="1690.59,-157.29 1695.91,-148.13 1686.04,-151.97 1690.59,-157.29"/>
</g>
<!-- Node28&#45;&gt;Node17 -->
<g id="edge51" class="edge">
<title>Node28&#45;&gt;Node17</title>
<path fill="none" stroke="midnightblue" d="M1098.1,-262.95C1094.95,-233.1 1084.39,-133.08 1079.97,-91.2"/>
<polygon fill="midnightblue" stroke="midnightblue" points="1083.45,-90.82 1078.92,-81.24 1076.49,-91.56 1083.45,-90.82"/>
</g>
<!-- Node28&#45;&gt;Node20 -->
<g id="edge50" class="edge">
<title>Node28&#45;&gt;Node20</title>
<path fill="none" stroke="midnightblue" d="M1073.11,-262.87C1038.77,-251.42 978.04,-231.18 939.47,-218.32"/>
<polygon fill="midnightblue" stroke="midnightblue" points="940.28,-214.91 929.69,-215.06 938.07,-221.55 940.28,-214.91"/>
</g>
<!-- Node29&#45;&gt;Node8 -->
<g id="edge62" class="edge">
<title>Node29&#45;&gt;Node8</title>
<path fill="none" stroke="midnightblue" d="M1373.14,-380.32C1386.87,-371.9 1407.94,-358.97 1424.06,-349.07"/>
<polygon fill="midnightblue" stroke="midnightblue" points="1426.2,-351.87 1432.9,-343.65 1422.54,-345.9 1426.2,-351.87"/>
</g>
<!-- Node29&#45;&gt;Node17 -->
<g id="edge64" class="edge">
<title>Node29&#45;&gt;Node17</title>
<path fill="none" stroke="midnightblue" d="M1363.56,-380.32C1378.62,-350.34 1423.27,-249.75 1378,-190 1342.32,-142.89 1303.37,-179.38 1250,-154 1228.4,-143.72 1227.05,-134.36 1206,-123 1176.45,-107.06 1140.77,-93.4 1114.59,-84.32"/>
<polygon fill="midnightblue" stroke="midnightblue" points="1115.65,-80.99 1105.06,-81.07 1113.39,-87.61 1115.65,-80.99"/>
</g>
<!-- Node29&#45;&gt;Node27 -->
<g id="edge63" class="edge">
<title>Node29&#45;&gt;Node27</title>
<path fill="none" stroke="midnightblue" d="M1408.73,-380.45C1489.69,-365.41 1644.16,-331.62 1676,-288 1691.84,-266.3 1668.02,-238.62 1649.17,-221.75"/>
<polygon fill="midnightblue" stroke="midnightblue" points="1651.4,-219.06 1641.52,-215.23 1646.86,-224.38 1651.4,-219.06"/>
</g>
<!-- Node30 -->
<g id="node30" class="node">
<title>Node30</title>
<g id="a_node30"><a xlink:href="heap_8h.html" target="_top" xlink:title=" ">
<polygon fill="white" stroke="black" points="741,-263 741,-282 815,-282 815,-263 741,-263"/>
<text text-anchor="middle" x="778" y="-270" font-family="Helvetica,sans-Serif" font-size="10.00">cppgc/heap.h</text>
</a>
</g>
</g>
<!-- Node29&#45;&gt;Node30 -->
<g id="edge54" class="edge">
<title>Node29&#45;&gt;Node30</title>
<path fill="none" stroke="midnightblue" d="M1315.81,-380.41C1209.46,-359.27 935.63,-304.84 825.2,-282.88"/>
<polygon fill="midnightblue" stroke="midnightblue" points="825.84,-279.44 815.35,-280.92 824.47,-286.31 825.84,-279.44"/>
</g>
<!-- Node30&#45;&gt;Node2 -->
<g id="edge55" class="edge">
<title>Node30&#45;&gt;Node2</title>
<path fill="none" stroke="midnightblue" d="M740.76,-270.84C608.57,-267.68 164.67,-250 69,-154 52.48,-137.42 48.82,-109.55 48.38,-91.09"/>
<polygon fill="midnightblue" stroke="midnightblue" points="51.88,-91.02 48.44,-81 44.88,-90.98 51.88,-91.02"/>
</g>
<!-- Node30&#45;&gt;Node3 -->
<g id="edge56" class="edge">
<title>Node30&#45;&gt;Node3</title>
<path fill="none" stroke="midnightblue" d="M771.12,-262.95C757.31,-246.38 724.52,-209.76 689,-190 637.36,-161.26 616.94,-173.07 561,-154 558.88,-153.28 556.69,-152.49 554.51,-151.68"/>
<polygon fill="midnightblue" stroke="midnightblue" points="555.63,-148.36 545.04,-148.02 553.1,-154.89 555.63,-148.36"/>
</g>
<!-- Node30&#45;&gt;Node4 -->
<g id="edge59" class="edge">
<title>Node30&#45;&gt;Node4</title>
<path fill="none" stroke="midnightblue" d="M757.42,-262.87C730.67,-251.65 683.75,-231.98 653.03,-219.09"/>
<polygon fill="midnightblue" stroke="midnightblue" points="654.24,-215.81 643.67,-215.17 651.54,-222.26 654.24,-215.81"/>
</g>
<!-- Node30&#45;&gt;Node17 -->
<g id="edge61" class="edge">
<title>Node30&#45;&gt;Node17</title>
<path fill="none" stroke="midnightblue" d="M781.55,-262.8C788.88,-245.97 807.36,-208.92 835,-190 890.5,-152 922.64,-185.64 982,-154 1000.05,-144.38 1000.51,-136.35 1016,-123 1030.18,-110.78 1046.63,-97.41 1059.02,-87.51"/>
<polygon fill="midnightblue" stroke="midnightblue" points="1061.23,-90.22 1066.87,-81.26 1056.87,-84.75 1061.23,-90.22"/>
</g>
<!-- Node30&#45;&gt;Node24 -->
<g id="edge60" class="edge">
<title>Node30&#45;&gt;Node24</title>
<path fill="none" stroke="midnightblue" d="M810.97,-263C849.59,-253.02 915.47,-235.95 972,-221 976.06,-219.93 980.3,-218.8 984.53,-217.67"/>
<polygon fill="midnightblue" stroke="midnightblue" points="985.56,-221.02 994.32,-215.05 983.75,-214.26 985.56,-221.02"/>
</g>
<!-- Node31 -->
<g id="node31" class="node">
<title>Node31</title>
<g id="a_node31"><a xlink:href="common_8h.html" target="_top" xlink:title=" ">
<polygon fill="white" stroke="black" points="771.5,-129 771.5,-148 862.5,-148 862.5,-129 771.5,-129"/>
<text text-anchor="middle" x="817" y="-136" font-family="Helvetica,sans-Serif" font-size="10.00">cppgc/common.h</text>
</a>
</g>
</g>
<!-- Node30&#45;&gt;Node31 -->
<g id="edge57" class="edge">
<title>Node30&#45;&gt;Node31</title>
<path fill="none" stroke="midnightblue" d="M780.52,-262.93C784.88,-248.08 794.14,-216.59 802,-190 805.17,-179.29 808.72,-167.32 811.58,-157.71"/>
<polygon fill="midnightblue" stroke="midnightblue" points="814.95,-158.66 814.45,-148.08 808.24,-156.66 814.95,-158.66"/>
</g>
<!-- Node31&#45;&gt;Node17 -->
<g id="edge58" class="edge">
<title>Node31&#45;&gt;Node17</title>
<path fill="none" stroke="midnightblue" d="M848.38,-128.94C855.79,-126.96 863.67,-124.88 871,-123 928.93,-108.16 996.25,-91.92 1037.99,-81.97"/>
<polygon fill="midnightblue" stroke="midnightblue" points="1038.86,-85.36 1047.78,-79.64 1037.24,-78.55 1038.86,-85.36"/>
</g>
<!-- Node32&#45;&gt;Node5 -->
<g id="edge70" class="edge">
<title>Node32&#45;&gt;Node5</title>
<path fill="none" stroke="midnightblue" d="M440.6,-128.99C480.31,-117.11 550.06,-96.01 575,-87 576.86,-86.33 578.76,-85.62 580.67,-84.88"/>
<polygon fill="midnightblue" stroke="midnightblue" points="582.15,-88.06 590.14,-81.1 579.55,-81.56 582.15,-88.06"/>
</g>
<!-- Node32&#45;&gt;Node11 -->
<g id="edge73" class="edge">
<title>Node32&#45;&gt;Node11</title>
<path fill="none" stroke="midnightblue" d="M446.56,-130.32C461.14,-127.58 478.33,-124.7 494,-123 885.81,-80.59 986.96,-115.91 1380,-87 1411.88,-84.66 1447.84,-80.77 1474.78,-77.61"/>
<polygon fill="midnightblue" stroke="midnightblue" points="1475.48,-81.05 1484.99,-76.39 1474.65,-74.1 1475.48,-81.05"/>
</g>
<!-- Node32&#45;&gt;Node16 -->
<g id="edge71" class="edge">
<title>Node32&#45;&gt;Node16</title>
<path fill="none" stroke="midnightblue" d="M439.09,-128.99C446.18,-126.9 453.85,-124.76 461,-123 541.5,-103.22 564.78,-111.39 644,-87 646.14,-86.34 648.33,-85.59 650.52,-84.79"/>
<polygon fill="midnightblue" stroke="midnightblue" points="651.92,-88 659.91,-81.04 649.33,-81.5 651.92,-88"/>
</g>
<!-- Node32&#45;&gt;Node17 -->
<g id="edge75" class="edge">
<title>Node32&#45;&gt;Node17</title>
<path fill="none" stroke="midnightblue" d="M446.61,-130.68C461.19,-127.99 478.38,-125.05 494,-123 697.5,-96.26 942.84,-80.31 1037.78,-74.74"/>
<polygon fill="midnightblue" stroke="midnightblue" points="1038.03,-78.24 1047.81,-74.16 1037.62,-71.25 1038.03,-78.24"/>
</g>
<!-- Node33 -->
<g id="node33" class="node">
<title>Node33</title>
<g id="a_node33"><a xlink:title=" ">
<polygon fill="white" stroke="#bfbfbf" points="388,-62 388,-81 436,-81 436,-62 388,-62"/>
<text text-anchor="middle" x="412" y="-69" font-family="Helvetica,sans-Serif" font-size="10.00">string.h</text>
</a>
</g>
</g>
<!-- Node32&#45;&gt;Node33 -->
<g id="edge72" class="edge">
<title>Node32&#45;&gt;Node33</title>
<path fill="none" stroke="midnightblue" d="M412,-128.73C412,-119.18 412,-103.62 412,-91.28"/>
<polygon fill="midnightblue" stroke="midnightblue" points="415.5,-91.13 412,-81.13 408.5,-91.13 415.5,-91.13"/>
</g>
<!-- Node34 -->
<g id="node34" class="node">
<title>Node34</title>
<g id="a_node34"><a xlink:href="v8-version_8h.html" target="_top" xlink:title=" ">
<polygon fill="white" stroke="black" points="221.5,-62 221.5,-81 290.5,-81 290.5,-62 221.5,-62"/>
<text text-anchor="middle" x="256" y="-69" font-family="Helvetica,sans-Serif" font-size="10.00">v8&#45;version.h</text>
</a>
</g>
</g>
<!-- Node32&#45;&gt;Node34 -->
<g id="edge74" class="edge">
<title>Node32&#45;&gt;Node34</title>
<path fill="none" stroke="midnightblue" d="M391.28,-128.87C364.36,-117.65 317.14,-97.98 286.22,-85.09"/>
<polygon fill="midnightblue" stroke="midnightblue" points="287.38,-81.78 276.8,-81.17 284.69,-88.24 287.38,-81.78"/>
</g>
<!-- Node35&#45;&gt;Node2 -->
<g id="edge81" class="edge">
<title>Node35&#45;&gt;Node2</title>
<path fill="none" stroke="midnightblue" d="M347.47,-202.99C295.09,-198.19 140.88,-181.96 100,-154 77.44,-138.57 62.87,-109.53 55.3,-90.6"/>
<polygon fill="midnightblue" stroke="midnightblue" points="58.51,-89.19 51.73,-81.05 51.95,-91.64 58.51,-89.19"/>
</g>
<!-- Node35&#45;&gt;Node3 -->
<g id="edge85" class="edge">
<title>Node35&#45;&gt;Node3</title>
<path fill="none" stroke="midnightblue" d="M382.73,-197.3C409.65,-186.36 461.17,-165.43 494.26,-151.99"/>
<polygon fill="midnightblue" stroke="midnightblue" points="495.95,-155.08 503.9,-148.07 493.31,-148.59 495.95,-155.08"/>
</g>
<!-- Node35&#45;&gt;Node5 -->
<g id="edge77" class="edge">
<title>Node35&#45;&gt;Node5</title>
<path fill="none" stroke="midnightblue" d="M362.12,-195.61C357.37,-179.08 350.12,-143.48 368,-123 429.41,-52.65 485.32,-113.03 575,-87 577.29,-86.33 579.64,-85.57 581.97,-84.74"/>
<polygon fill="midnightblue" stroke="midnightblue" points="583.32,-87.97 591.38,-81.1 580.79,-81.44 583.32,-87.97"/>
</g>
<!-- Node35&#45;&gt;Node9 -->
<g id="edge80" class="edge">
<title>Node35&#45;&gt;Node9</title>
<path fill="none" stroke="midnightblue" d="M347.43,-202.85C302.45,-198.21 185.04,-183.47 162,-154 131.05,-114.41 203.44,-60.51 212,-56 260.48,-30.44 1102.56,-14.65 1282.39,-11.56"/>
<polygon fill="midnightblue" stroke="midnightblue" points="1282.63,-15.05 1292.57,-11.38 1282.51,-8.06 1282.63,-15.05"/>
</g>
<!-- Node35&#45;&gt;Node11 -->
<g id="edge83" class="edge">
<title>Node35&#45;&gt;Node11</title>
<path fill="none" stroke="midnightblue" d="M382.63,-202.97C416.3,-200.09 492.1,-193.82 556,-190 739.62,-179.04 1207.08,-207.77 1383,-154 1428.44,-140.11 1474.07,-106.98 1498.28,-87.5"/>
<polygon fill="midnightblue" stroke="midnightblue" points="1500.68,-90.06 1506.19,-81.01 1496.24,-84.65 1500.68,-90.06"/>
</g>
<!-- Node35&#45;&gt;Node16 -->
<g id="edge78" class="edge">
<title>Node35&#45;&gt;Node16</title>
<path fill="none" stroke="midnightblue" d="M382.07,-195.97C400.53,-186.5 430.61,-170.38 455,-154 473.38,-141.65 474.1,-132.7 494,-123 555.63,-92.96 578.91,-108.52 644,-87 645.92,-86.37 647.88,-85.67 649.85,-84.93"/>
<polygon fill="midnightblue" stroke="midnightblue" points="651.54,-88.02 659.51,-81.05 648.93,-81.53 651.54,-88.02"/>
</g>
<!-- Node35&#45;&gt;Node17 -->
<g id="edge89" class="edge">
<title>Node35&#45;&gt;Node17</title>
<path fill="none" stroke="midnightblue" d="M382.6,-203.25C445.72,-198.56 660.29,-180.95 723,-154 743.34,-145.26 741.74,-131.93 762,-123 854.76,-82.13 975.8,-73.86 1037.7,-72.49"/>
<polygon fill="midnightblue" stroke="midnightblue" points="1037.9,-75.99 1047.83,-72.31 1037.78,-68.99 1037.9,-75.99"/>
</g>
<!-- Node35&#45;&gt;Node21 -->
<g id="edge82" class="edge">
<title>Node35&#45;&gt;Node21</title>
<path fill="none" stroke="midnightblue" d="M356.73,-195.78C342.64,-179.85 317.16,-145.61 335,-123 346.21,-108.8 459.43,-87.47 515.23,-77.71"/>
<polygon fill="midnightblue" stroke="midnightblue" points="516.01,-81.13 525.27,-75.97 514.82,-74.23 516.01,-81.13"/>
</g>
<!-- Node35&#45;&gt;Node31 -->
<g id="edge86" class="edge">
<title>Node35&#45;&gt;Node31</title>
<path fill="none" stroke="midnightblue" d="M382.69,-202.91C438.17,-197.8 613.61,-180.48 757,-154 762.74,-152.94 768.75,-151.68 774.66,-150.34"/>
<polygon fill="midnightblue" stroke="midnightblue" points="775.5,-153.74 784.44,-148.05 773.91,-146.92 775.5,-153.74"/>
</g>
<!-- Node35&#45;&gt;Node32 -->
<g id="edge87" class="edge">
<title>Node35&#45;&gt;Node32</title>
<path fill="none" stroke="midnightblue" d="M371.34,-195.73C378.6,-185.7 390.66,-169.01 399.76,-156.42"/>
<polygon fill="midnightblue" stroke="midnightblue" points="402.74,-158.28 405.76,-148.13 397.07,-154.18 402.74,-158.28"/>
</g>
<!-- Node35&#45;&gt;Node34 -->
<g id="edge88" class="edge">
<title>Node35&#45;&gt;Node34</title>
<path fill="none" stroke="midnightblue" d="M347.25,-202.61C303.55,-197.55 192.76,-182.15 171,-154 162.57,-143.1 164.19,-134.97 171,-123 181.17,-105.13 200.44,-92.92 218.06,-84.99"/>
<polygon fill="midnightblue" stroke="midnightblue" points="219.73,-88.09 227.62,-81.02 217.04,-81.63 219.73,-88.09"/>
</g>
<!-- Node36 -->
<g id="node36" class="node">
<title>Node36</title>
<g id="a_node36"><a xlink:title=" ">
<polygon fill="white" stroke="#bfbfbf" points="180.5,-129 180.5,-148 225.5,-148 225.5,-129 180.5,-129"/>
<text text-anchor="middle" x="203" y="-136" font-family="Helvetica,sans-Serif" font-size="10.00">stdio.h</text>
</a>
</g>
</g>
<!-- Node35&#45;&gt;Node36 -->
<g id="edge79" class="edge">
<title>Node35&#45;&gt;Node36</title>
<path fill="none" stroke="midnightblue" d="M347.47,-198.18C322.19,-188.98 274.14,-171.1 234,-154 232.8,-153.49 231.58,-152.96 230.35,-152.42"/>
<polygon fill="midnightblue" stroke="midnightblue" points="231.49,-149.09 220.94,-148.15 228.6,-155.47 231.49,-149.09"/>
</g>
<!-- Node37 -->
<g id="node37" class="node">
<title>Node37</title>
<g id="a_node37"><a xlink:title=" ">
<polygon fill="white" stroke="#bfbfbf" points="243.5,-129 243.5,-148 282.5,-148 282.5,-129 243.5,-129"/>
<text text-anchor="middle" x="263" y="-136" font-family="Helvetica,sans-Serif" font-size="10.00">utility</text>
</a>
</g>
</g>
<!-- Node35&#45;&gt;Node37 -->
<g id="edge84" class="edge">
<title>Node35&#45;&gt;Node37</title>
<path fill="none" stroke="midnightblue" d="M351.24,-195.73C334.27,-184.92 305.19,-166.38 285.07,-153.57"/>
<polygon fill="midnightblue" stroke="midnightblue" points="286.85,-150.55 276.54,-148.13 283.09,-156.45 286.85,-150.55"/>
</g>
</g>
</svg>
